<svg width="29" height="20" viewBox="0 0 29 20" fill="none" xmlns="http://www.w3.org/2000/svg">
<g id="Logo 2">
<path id="Vector" d="M7.62635 5.66076C11.3988 1.96725 17.515 1.96725 21.2875 5.66076L21.7415 6.10526C21.9301 6.28996 21.9301 6.58936 21.7415 6.77406L20.1884 8.29466C20.0941 8.38701 19.9412 8.38701 19.8468 8.29466L19.2221 7.68298C16.5903 5.10626 12.3235 5.10626 9.69171 7.68298L9.02261 8.33804C8.92834 8.43039 8.77545 8.43039 8.68111 8.33804L7.12804 6.81743C6.93936 6.63273 6.93936 6.33334 7.12804 6.14864L7.62635 5.66076ZM24.4994 8.80557L25.8817 10.1589C26.0703 10.3436 26.0703 10.643 25.8817 10.8277L19.649 16.9301C19.4604 17.1148 19.1545 17.1148 18.9659 16.9301L14.5423 12.5991C14.4951 12.5529 14.4187 12.5529 14.3715 12.5991L9.94804 16.9301C9.75942 17.1148 9.45358 17.1148 9.26496 16.9301L3.03209 10.8276C2.84347 10.6429 2.84347 10.3435 3.03209 10.1588L4.41436 8.80545C4.60298 8.62081 4.9088 8.62081 5.09742 8.80545L9.52111 13.1366C9.56822 13.1828 9.64466 13.1828 9.69183 13.1366L14.1153 8.80545C14.3039 8.62081 14.6097 8.62081 14.7983 8.80545L19.222 13.1366C19.2692 13.1828 19.3456 13.1828 19.3928 13.1366L23.8164 8.80557C24.005 8.62087 24.3108 8.62087 24.4994 8.80557Z" fill="#3396FF"/>
</g>
</svg>
