<svg width="59" height="64" viewBox="0 0 59 64" fill="none" xmlns="http://www.w3.org/2000/svg">
<g id="Logo" filter="url(#filter0_i_3538_54960)">
<path id="Vector" d="M48.3617 19.4726C49.1018 21.9239 49.725 26.1706 47.9722 31.7292C47.9722 31.7292 46.9595 35.6306 42.7917 37.6677C42.7917 37.6677 39.6756 39.1523 39.6756 42.2596V46.2646C39.6756 46.2646 35.6636 47.4039 30.9115 52.9971H27.7565C23.0433 47.4039 19.0314 46.2646 19.0314 46.2646V42.2251C19.0314 39.1177 15.9153 37.6331 15.9153 37.6331C11.7085 35.5961 10.6958 31.6947 10.6958 31.6947C8.94297 26.067 9.60515 21.7513 10.3452 19.3345C10.3452 19.369 10.3063 19.4035 10.3063 19.438C10.3063 19.438 10.54 28.9672 19.8104 35.1473C19.8104 35.1473 21.1737 36.0795 22.6149 36.3557C22.8096 36.3902 22.8875 36.4247 22.8875 36.4247C23.9392 36.5974 24.6404 36.9771 24.6404 36.9771V36.9426C24.6793 36.9426 24.6793 36.9771 24.6793 36.9771V36.77C24.7572 32.5233 20.0441 29.485 20.0441 29.485C18.0965 28.2766 16.6943 26.9992 15.6816 25.7217C15.6426 25.6872 15.6036 25.6182 15.5647 25.5836C15.5257 25.5491 15.4868 25.5146 15.4868 25.4801C15.4089 25.3765 15.3699 25.3074 15.292 25.2038C15.2141 25.1348 15.1752 25.0312 15.0973 24.9276C15.0194 24.8241 14.9415 24.7205 14.9025 24.6169C14.6688 24.2371 14.4741 23.8573 14.2793 23.5121C14.2404 23.4085 14.2014 23.3049 14.1624 23.2359C14.1235 23.0978 14.0456 22.9942 14.0066 22.8561C13.9677 22.7525 13.9287 22.6144 13.8508 22.5108C13.695 22.062 13.5392 21.6132 13.4613 21.2334C13.4224 21.0953 13.3834 20.9226 13.3834 20.7845C13.3445 20.6464 13.3445 20.5083 13.3055 20.4048C13.3055 20.3357 13.3055 20.2667 13.2666 20.2321C13.2666 20.1976 13.2666 20.1976 13.2666 20.1976C13.2666 20.1631 13.2666 20.1285 13.2666 20.1285C13.2666 20.0595 13.2666 19.9904 13.2666 19.9559C13.3834 16.7105 12.0591 14.5354 12.0591 14.5354C8.86507 7.73378 3.52874 0.241681 3.33398 0C3.52874 0.172629 9.722 5.80034 14.7078 8.18262C14.7078 8.18262 18.525 10.4958 23.1992 10.634H35.5467C40.2209 10.4958 44.0381 8.18262 44.0381 8.18262C48.946 5.80034 55.1392 0.172629 55.334 0C55.1782 0.241681 49.8029 7.73378 46.492 14.5008C46.492 14.5008 45.2066 16.676 45.2845 19.9214C45.2845 19.9214 45.2845 20.5083 45.0898 21.4405C44.5834 23.5466 43.0643 26.8266 38.5849 29.5196C38.5849 29.5196 34.0666 32.4197 33.9497 36.4938C33.9497 36.5974 33.9108 36.7009 33.9108 36.8045V37.0117C33.9108 37.0117 33.9108 37.0117 33.9497 37.0117C33.9497 37.0117 34.6508 36.6319 35.7025 36.4593C35.7415 36.4593 35.7415 36.4593 35.8194 36.4247C35.8194 36.4247 35.8583 36.4247 35.8973 36.4247C35.8973 36.4247 35.8973 36.4247 35.9362 36.4247C37.4164 36.1831 38.8576 35.1818 38.8576 35.1818C48.1669 29.0017 48.3617 19.4726 48.3617 19.4726Z" fill="#75FB91"/>
<path id="Vector_2" d="M29.3159 64.0007C33.0044 64.0007 34.6051 62.7963 34.6051 62.7963C37.8064 60.6628 40.2422 60.9037 40.2422 60.9037C45.4965 61.0757 45.8445 57.4969 45.8445 57.4969C46.2621 54.2966 50.0549 52.1631 50.0549 52.1631C54.1262 49.3758 56.7708 44.1452 56.7708 44.1452C61.6423 33.5808 55.5877 25.9414 55.5877 25.9414C55.5877 25.9414 61.0508 37.607 52.2124 46.3131C52.2124 46.3131 50.9249 47.8617 48.6283 48.309C48.6283 48.309 44.9746 48.3778 43.7915 49.6166C43.7915 49.6166 42.7824 50.4769 41.6341 50.9243C41.6341 50.9243 39.7202 51.5093 38.0848 54.2278C38.0848 54.2278 36.6233 56.3613 34.8835 57.256C34.8835 57.256 32.8652 58.254 30.7774 61.0413C30.7774 61.0413 29.9423 62.521 29.4203 62.5554H29.3855C28.8636 62.521 28.0284 61.0413 28.0284 61.0413C25.9406 58.2196 23.9224 57.256 23.9224 57.256C22.1478 56.3958 20.7211 54.2278 20.7211 54.2278C19.0508 51.5093 17.1718 50.9243 17.1718 50.9243C16.0235 50.4769 15.0144 49.6166 15.0144 49.6166C13.7965 48.4122 10.1776 48.309 10.1776 48.309C7.88099 47.8617 6.5935 46.3131 6.5935 46.3131C-2.41892 37.607 3.079 25.9414 3.079 25.9414C3.079 25.9414 -2.97568 33.5808 1.8959 44.1452C1.8959 44.1452 4.54047 49.3758 8.61172 52.1631C8.61172 52.1631 12.4046 54.2966 12.8222 57.4969C12.8222 57.4969 13.1701 61.0757 18.4245 60.9037C18.4245 60.9037 20.8255 60.6628 24.0616 62.7963C24.0268 62.7963 25.6275 64.0007 29.3159 64.0007Z" fill="#75FB91"/>
</g>
<defs>
<filter id="filter0_i_3538_54960" x="0" y="0" width="58.6665" height="66.501" filterUnits="userSpaceOnUse" color-interpolation-filters="sRGB">
<feFlood flood-opacity="0" result="BackgroundImageFix"/>
<feBlend mode="normal" in="SourceGraphic" in2="BackgroundImageFix" result="shape"/>
<feColorMatrix in="SourceAlpha" type="matrix" values="0 0 0 0 0 0 0 0 0 0 0 0 0 0 0 0 0 0 127 0" result="hardAlpha"/>
<feOffset dy="2.5"/>
<feGaussianBlur stdDeviation="1.25"/>
<feComposite in2="hardAlpha" operator="arithmetic" k2="-1" k3="1"/>
<feColorMatrix type="matrix" values="0 0 0 0 0 0 0 0 0 0 0 0 0 0 0 0 0 0 0.25 0"/>
<feBlend mode="normal" in2="shape" result="effect1_innerShadow_3538_54960"/>
</filter>
</defs>
</svg>
