<svg width="20" height="20" viewBox="0 0 20 20" fill="none" xmlns="http://www.w3.org/2000/svg">
<g id="Wallet Icon">
<path id="Vector" d="M13.5833 11.3333C13.9306 11.3333 14.2396 11.1979 14.5104 10.9271C14.7812 10.6562 14.9167 10.3403 14.9167 9.97917C14.9167 9.63194 14.7812 9.32639 14.5104 9.0625C14.2396 8.79861 13.9306 8.66667 13.5833 8.66667C13.2361 8.66667 12.9271 8.79861 12.6562 9.0625C12.3854 9.32639 12.25 9.63194 12.25 9.97917C12.25 10.3403 12.3854 10.6562 12.6562 10.9271C12.9271 11.1979 13.2361 11.3333 13.5833 11.3333ZM3.75 15.1458V16.25V3.75V15.1458ZM3.75 17.5C3.43056 17.5 3.14236 17.375 2.88542 17.125C2.62847 16.875 2.5 16.5833 2.5 16.25V3.75C2.5 3.43056 2.62847 3.14236 2.88542 2.88542C3.14236 2.62847 3.43056 2.5 3.75 2.5H16.25C16.5833 2.5 16.875 2.62847 17.125 2.88542C17.375 3.14236 17.5 3.43056 17.5 3.75V6.54167H16.25V3.75H3.75V16.25H16.25V13.4792H17.5V16.25C17.5 16.5833 17.375 16.875 17.125 17.125C16.875 17.375 16.5833 17.5 16.25 17.5H3.75ZM11.2083 13.8958C10.7361 13.8958 10.3611 13.7569 10.0833 13.4792C9.80556 13.2014 9.66667 12.8333 9.66667 12.375V7.64583C9.66667 7.17361 9.80556 6.80208 10.0833 6.53125C10.3611 6.26042 10.7361 6.125 11.2083 6.125H16.8333C17.3056 6.125 17.6806 6.26042 17.9583 6.53125C18.2361 6.80208 18.375 7.17361 18.375 7.64583V12.375C18.375 12.8333 18.2361 13.2014 17.9583 13.4792C17.6806 13.7569 17.3056 13.8958 16.8333 13.8958H11.2083ZM17.125 12.6458V7.375H10.9167V12.6458H17.125Z" fill="#B0B4B5"/>
</g>
</svg>
